<svg version="1.1" xmlns="http://www.w3.org/2000/svg" xmlns:xlink="http://www.w3.org/1999/xlink" width="316.8261" height="58.84942" viewBox="0,0,316.8261,58.84942"><g transform="translate(-81.58695,-88.57529)"><g stroke="none" stroke-width="none" stroke-miterlimit="10"><g><path d="M81.58695,139.56169c0,-12.88878 0,-37.74767 0,-44.41625c0,-3.23373 3.1628,-6.57016 7.47653,-6.57016c24.8632,0 253.54435,0 300.82137,0c5.48494,0 8.52819,2.97715 8.52819,7.52267c0,12.4861 0,36.80632 0,43.76167c0,2.8557 -2.72142,7.56507 -7.65514,7.56507c-45.09812,0 -275.04327,0 -300.99935,0c-4.68538,0 -8.17161,-3.12153 -8.17161,-7.86302z" fill="#000000"/><path d="M85.70831,139.56169c0,-10.77094 0,-39.34004 0,-44.41625c0,-1.51313 1.28613,-2.8165 3.2504,-2.8165c17.66462,0 265.4202,0 301.07165,0c2.77162,0 4.26132,1.38865 4.26132,3.69627c0,10.16037 0,38.13585 0,43.83443c0,1.9802 -1.15233,3.81142 -3.31551,3.81142c-31.78839,0 -281.87005,0 -301.31503,0c-2.36574,0 -3.95283,-1.55366 -3.95283,-4.10936z" fill="#ffffff"/></g></g></g></svg>