<svg version="1.1" xmlns="http://www.w3.org/2000/svg" xmlns:xlink="http://www.w3.org/1999/xlink" width="214.8261" height="58.84941" viewBox="0,0,214.8261,58.84941"><g transform="translate(-132.58695,-150.5753)"><g stroke-miterlimit="10"><path d="M132.58696,201.56171c0,-12.88878 0,-37.74767 0,-44.41625c0,-3.23373 2.14456,-6.57016 5.06951,-6.57016c16.85866,0 171.91748,0 203.97398,0c3.7191,0 5.7826,2.97715 5.7826,7.52267c0,12.4861 0,36.80632 0,43.76167c0,2.8557 -1.84528,7.56507 -5.19062,7.56507c-30.57909,0 -186.49497,0 -204.09466,0c-3.17695,0 -5.54082,-3.12153 -5.54082,-7.86302z" fill="#000000" stroke="none" stroke-width="NaN"/><path d="M136.46843,201.56171c0,-10.77094 0,-39.34004 0,-44.41625c0,-1.51313 0.86301,-2.8165 2.18106,-2.8165c11.85317,0 178.10014,0 202.02269,0c1.85979,0 2.8594,1.38865 2.8594,3.69627c0,10.16037 0,38.13585 0,43.83443c0,1.9802 -0.77323,3.81142 -2.22475,3.81142c-21.33039,0 -189.13819,0 -202.186,0c-1.58744,0 -2.6524,-1.55366 -2.6524,-4.10936z" fill="#5de26f" stroke="none" stroke-width="NaN"/><text transform="translate(211.6076,188.18943) scale(0.70981,0.70981)" font-size="40" xml:space="preserve" fill="#ffffff" stroke="#000000" stroke-width="3" font-family="Sans Serif" font-weight="normal" text-anchor="start"><tspan x="0" dy="0">入る</tspan></text><text transform="translate(211.60761,188.18943) scale(0.70981,0.70981)" font-size="40" xml:space="preserve" fill="#ffffff" stroke="#ffffff" stroke-width="1" font-family="Sans Serif" font-weight="normal" text-anchor="start"><tspan x="0" dy="0">入る</tspan></text></g></g></svg>